<svg width="23" height="20" viewBox="0 0 23 20" fill="none" xmlns="http://www.w3.org/2000/svg">
<path d="M10 15.5556C9.87037 15.5556 9.75926 15.5185 9.66667 15.4444C9.57407 15.3704 9.50926 15.2778 9.47222 15.1667C9.21296 14.3889 8.89815 13.7407 8.52778 13.2222C8.15741 12.7037 7.78704 12.2037 7.41667 11.7222C7.0463 11.2407 6.73611 10.7407 6.48611 10.2222C6.23611 9.7037 6.11111 9.07407 6.11111 8.33333C6.11111 7.25926 6.49074 6.34259 7.25 5.58333C8.00926 4.82407 8.92593 4.44444 10 4.44444C11.0741 4.44444 11.9907 4.82407 12.75 5.58333C13.5093 6.34259 13.8889 7.25926 13.8889 8.33333C13.8889 9.07407 13.7639 9.7037 13.5139 10.2222C13.2639 10.7407 12.9537 11.2407 12.5833 11.7222C12.213 12.2037 11.8426 12.7037 11.4722 13.2222C11.1019 13.7407 10.787 14.3889 10.5278 15.1667C10.4907 15.2778 10.4259 15.3704 10.3333 15.4444C10.2407 15.5185 10.1296 15.5556 10 15.5556ZM10 12.4444C10.1667 12.1852 10.3333 11.9444 10.5 11.7222C10.6667 11.5 10.8241 11.287 10.9722 11.0833C11.3981 10.5278 11.713 10.0648 11.9167 9.69444C12.1204 9.32407 12.2222 8.87037 12.2222 8.33333C12.2222 7.72222 12.0046 7.19907 11.5694 6.76389C11.1343 6.3287 10.6111 6.11111 10 6.11111C9.38889 6.11111 8.86574 6.3287 8.43056 6.76389C7.99537 7.19907 7.77778 7.72222 7.77778 8.33333C7.77778 8.87037 7.87963 9.32407 8.08333 9.69444C8.28704 10.0648 8.60185 10.5278 9.02778 11.0833C9.17593 11.287 9.33333 11.5 9.5 11.7222C9.66667 11.9444 9.83333 12.1852 10 12.4444ZM10 9.72222C10.3889 9.72222 10.7176 9.58796 10.9861 9.31944C11.2546 9.05093 11.3889 8.72222 11.3889 8.33333C11.3889 7.94444 11.2546 7.61574 10.9861 7.34722C10.7176 7.0787 10.3889 6.94444 10 6.94444C9.61111 6.94444 9.28241 7.0787 9.01389 7.34722C8.74537 7.61574 8.61111 7.94444 8.61111 8.33333C8.61111 8.72222 8.74537 9.05093 9.01389 9.31944C9.28241 9.58796 9.61111 9.72222 10 9.72222ZM10 20C7.22222 20 4.86111 19.0278 2.91667 17.0833C0.972222 15.1389 0 12.7778 0 10C0 8.61111 0.263889 7.31019 0.791667 6.09722C1.31944 4.88426 2.03241 3.8287 2.93056 2.93056C3.8287 2.03241 4.88426 1.31944 6.09722 0.791667C7.31019 0.263889 8.61111 0 10 0C11.3889 0 12.6898 0.263889 13.9028 0.791667C15.1157 1.31944 16.1713 2.03241 17.0694 2.93056C17.9676 3.8287 18.6806 4.88426 19.2083 6.09722C19.7361 7.31019 20 8.61111 20 10V10.2222L20.6944 9.52778C20.8981 9.30556 21.1528 9.19444 21.4583 9.19444C21.7639 9.19444 22.0278 9.2963 22.25 9.5C22.4722 9.72222 22.5833 9.98611 22.5833 10.2917C22.5833 10.5972 22.4722 10.8611 22.25 11.0833L19.6667 13.6667C19.4444 13.8889 19.1852 14 18.8889 14C18.5926 14 18.3333 13.8889 18.1111 13.6667L15.5 11.0556C15.2778 10.8333 15.1713 10.5741 15.1806 10.2778C15.1898 9.98148 15.3056 9.72222 15.5278 9.5C15.75 9.2963 16.0093 9.18981 16.3056 9.18056C16.6019 9.1713 16.8611 9.27778 17.0833 9.5L17.7778 10.1944V10C17.7778 7.85185 17.0185 6.01852 15.5 4.5C13.9815 2.98148 12.1481 2.22222 10 2.22222C7.85185 2.22222 6.01852 2.98148 4.5 4.5C2.98148 6.01852 2.22222 7.85185 2.22222 10C2.24074 12.1481 3.00463 13.9815 4.51389 15.5C6.02315 17.0185 7.85185 17.7778 10 17.7778C10.8704 17.7778 11.6898 17.6481 12.4583 17.3889C13.2269 17.1296 13.9352 16.7593 14.5833 16.2778C14.8426 16.0926 15.125 16 15.4306 16C15.7361 16 15.9907 16.1019 16.1944 16.3056C16.4167 16.5278 16.5278 16.7963 16.5278 17.1111C16.5278 17.4259 16.3981 17.6852 16.1389 17.8889C15.287 18.5556 14.3426 19.0741 13.3056 19.4444C12.2685 19.8148 11.1667 20 10 20Z" fill="#161616"/>
</svg>
