<svg width="21" height="20" viewBox="0 0 21 20" fill="none" xmlns="http://www.w3.org/2000/svg">
<path d="M0 10.0213C0 8.63506 0.26306 7.33228 0.789181 6.11302C1.3153 4.89376 2.02932 3.83316 2.93124 2.93124C3.83316 2.02932 4.89376 1.3153 6.11302 0.789181C7.33228 0.26306 8.63506 0 10.0213 0C12.1425 0 14.0341 0.584578 15.6959 1.75373C17.3578 2.92289 18.5645 4.43444 19.3161 6.28839C19.4331 6.57233 19.4372 6.85627 19.3287 7.14021C19.2201 7.42414 19.0238 7.61622 18.7399 7.71643C18.4727 7.79994 18.218 7.77489 17.9758 7.64127C17.7336 7.50766 17.5624 7.30723 17.4622 7.03999C17.0613 6.03786 16.4851 5.15264 15.7335 4.38434C14.9819 3.61603 14.08 3.0231 13.0277 2.60555V3.0064C13.0277 3.55758 12.8315 4.02941 12.439 4.42192C12.0465 4.81442 11.5746 5.01067 11.0235 5.01067H9.01921V7.01494C9.01921 7.29888 8.92317 7.53688 8.73109 7.72896C8.53902 7.92104 8.30101 8.01707 8.01707 8.01707H6.0128V10.0213H7.01494C7.29888 10.0213 7.53688 10.1174 7.72896 10.3095C7.92104 10.5015 8.01707 10.7395 8.01707 11.0235V13.0277H7.01494L2.2047 8.2175C2.15459 8.51814 2.10866 8.81878 2.0669 9.11942C2.02515 9.42006 2.00427 9.7207 2.00427 10.0213C2.00427 12.059 2.67653 13.8378 4.02106 15.3577C5.36559 16.8776 7.05669 17.7545 9.09437 17.9883C9.3616 18.0217 9.58291 18.1345 9.75828 18.3265C9.93365 18.5186 10.0213 18.7566 10.0213 19.0405C10.0213 19.3245 9.9253 19.5625 9.73323 19.7546C9.54115 19.9466 9.3115 20.026 9.04426 19.9926C6.48882 19.742 4.34258 18.6731 2.60555 16.7857C0.868516 14.8984 0 12.6436 0 10.0213ZM18.4393 18.8401L15.9339 16.3348C15.5832 16.5352 15.2074 16.7022 14.8065 16.8359C14.4057 16.9695 13.9798 17.0363 13.5288 17.0363C12.2761 17.0363 11.2114 16.5978 10.3345 15.721C9.45764 14.8441 9.01921 13.7793 9.01921 12.5267C9.01921 11.274 9.45764 10.2092 10.3345 9.33237C11.2114 8.45551 12.2761 8.01707 13.5288 8.01707C14.7815 8.01707 15.8462 8.45551 16.7231 9.33237C17.6 10.2092 18.0384 11.274 18.0384 12.5267C18.0384 12.9776 17.9716 13.4035 17.838 13.8044C17.7044 14.2053 17.5373 14.5811 17.3369 14.9318L19.8423 17.4371C20.026 17.6209 20.1178 17.8547 20.1178 18.1386C20.1178 18.4226 20.026 18.6564 19.8423 18.8401C19.6585 19.0238 19.4247 19.1157 19.1408 19.1157C18.8568 19.1157 18.623 19.0238 18.4393 18.8401ZM13.5288 15.032C14.2303 15.032 14.8232 14.7898 15.3076 14.3055C15.792 13.8211 16.0341 13.2282 16.0341 12.5267C16.0341 11.8252 15.792 11.2323 15.3076 10.7479C14.8232 10.2635 14.2303 10.0213 13.5288 10.0213C12.8273 10.0213 12.2344 10.2635 11.75 10.7479C11.2657 11.2323 11.0235 11.8252 11.0235 12.5267C11.0235 13.2282 11.2657 13.8211 11.75 14.3055C12.2344 14.7898 12.8273 15.032 13.5288 15.032Z" fill="#161616"/>
</svg>
