<svg width="20" height="23" viewBox="0 0 20 23" fill="none" xmlns="http://www.w3.org/2000/svg">
<path d="M8.33118 10.7115V13.0919C8.33118 13.4291 8.44523 13.7117 8.67335 13.9398C8.90147 14.168 9.18413 14.282 9.52134 14.282C9.85856 14.282 10.1412 14.168 10.3693 13.9398C10.5975 13.7117 10.7115 13.4291 10.7115 13.0919V10.7115H13.0918C13.4291 10.7115 13.7117 10.5975 13.9398 10.3693C14.168 10.1412 14.282 9.85856 14.282 9.52135C14.282 9.18413 14.168 8.90147 13.9398 8.67335C13.7117 8.44524 13.4291 8.33118 13.0918 8.33118H10.7115V5.95084C10.7115 5.61363 10.5975 5.33096 10.3693 5.10285C10.1412 4.87473 9.85856 4.76067 9.52134 4.76067C9.18413 4.76067 8.90147 4.87473 8.67335 5.10285C8.44523 5.33096 8.33118 5.61363 8.33118 5.95084V8.33118H5.95084C5.61363 8.33118 5.33096 8.44524 5.10285 8.67335C4.87473 8.90147 4.76067 9.18413 4.76067 9.52135C4.76067 9.85856 4.87473 10.1412 5.10285 10.3693C5.33096 10.5975 5.61363 10.7115 5.95084 10.7115H8.33118ZM9.52134 20.6494C11.9414 18.4278 13.7365 16.4094 14.9069 14.5944C16.0772 12.7794 16.6624 11.1677 16.6624 9.75938C16.6624 7.59724 15.973 5.82687 14.5944 4.44825C13.2158 3.06964 11.5248 2.38034 9.52134 2.38034C7.5179 2.38034 5.82686 3.06964 4.44825 4.44825C3.06964 5.82687 2.38034 7.59724 2.38034 9.75938C2.38034 11.1677 2.9655 12.7794 4.13583 14.5944C5.30617 16.4094 7.10134 18.4278 9.52134 20.6494ZM9.52134 23C9.24364 23 8.96593 22.9504 8.68823 22.8512C8.41052 22.752 8.16257 22.6033 7.94437 22.4049C6.65502 21.2147 5.51445 20.0543 4.52264 18.9237C3.53083 17.793 2.70267 16.6971 2.03816 15.6358C1.37365 14.5746 0.867831 13.553 0.520699 12.5712C0.173566 11.5893 0 10.652 0 9.75938C0 6.78396 0.957093 4.41354 2.87128 2.64812C4.78547 0.882708 7.00216 0 9.52134 0C12.0405 0 14.2572 0.882708 16.1714 2.64812C18.0856 4.41354 19.0427 6.78396 19.0427 9.75938C19.0427 10.652 18.8691 11.5893 18.522 12.5712C18.1749 13.553 17.669 14.5746 17.0045 15.6358C16.34 16.6971 15.5119 17.793 14.5201 18.9237C13.5282 20.0543 12.3877 21.2147 11.0983 22.4049C10.8801 22.6033 10.6322 22.752 10.3545 22.8512C10.0768 22.9504 9.79905 23 9.52134 23Z" fill="#161616"/>
</svg>
