<svg width="20" height="23" viewBox="0 0 20 23" fill="none" xmlns="http://www.w3.org/2000/svg">
<path d="M0 10.3953C0 7.56281 0.911125 5.30624 2.73337 3.62562C4.55562 1.94499 6.66585 1.10468 9.06404 1.10468H9.34729C9.66831 1.10468 9.9374 1.21326 10.1546 1.43042C10.3717 1.64758 10.4803 1.91667 10.4803 2.23768C10.4803 2.5587 10.3717 2.82779 10.1546 3.04495C9.9374 3.26211 9.66831 3.37069 9.34729 3.37069H9.06404C7.15681 3.37069 5.547 4.02689 4.23461 5.33929C2.92221 6.65168 2.26601 8.33703 2.26601 10.3953C2.26601 11.736 2.82307 13.2703 3.93719 14.9982C5.05131 16.726 6.76026 18.6474 9.06404 20.7623C11.3678 18.6474 13.0768 16.726 14.1909 14.9982C15.305 13.2703 15.8621 11.736 15.8621 10.3953C15.8621 10.0743 15.9706 9.80521 16.1878 9.58805C16.405 9.3709 16.6741 9.26232 16.9951 9.26232C17.3161 9.26232 17.5852 9.3709 17.8023 9.58805C18.0195 9.80521 18.1281 10.0743 18.1281 10.3953C18.1281 12.1704 17.486 14.0729 16.202 16.1028C14.9179 18.1328 13.039 20.243 10.5653 22.4335C10.3576 22.6223 10.1215 22.764 9.85714 22.8584C9.59278 22.9528 9.32841 23 9.06404 23C8.79967 23 8.5353 22.9528 8.27094 22.8584C8.00657 22.764 7.77053 22.6223 7.56281 22.4335C6.33539 21.3005 5.24959 20.1958 4.30542 19.1195C3.36125 18.0431 2.57287 16.9998 1.94027 15.9895C1.30768 14.9793 0.826149 14.0068 0.49569 13.072C0.16523 12.1373 0 11.2451 0 10.3953ZM10.6502 10.9618L16.9384 4.67365C17.0517 4.56035 17.1084 4.42816 17.1084 4.27709C17.1084 4.12603 17.0517 3.99384 16.9384 3.88054L15.3522 2.29434C15.2389 2.18103 15.1067 2.12438 14.9557 2.12438C14.8046 2.12438 14.6724 2.18103 14.5591 2.29434L8.27094 8.58251C8.15764 8.69581 8.07266 8.82328 8.01601 8.9649C7.95936 9.10653 7.93103 9.25287 7.93103 9.40394V10.452C7.93103 10.6975 8.01129 10.9005 8.1718 11.061C8.33231 11.2215 8.5353 11.3017 8.78079 11.3017H9.82882C9.97989 11.3017 10.1262 11.2734 10.2679 11.2167C10.4095 11.1601 10.5369 11.0751 10.6502 10.9618ZM17.7315 3.08744C17.8448 3.20074 17.977 3.25739 18.1281 3.25739C18.2791 3.25739 18.4113 3.20074 18.5246 3.08744L18.9212 2.69089C19.1289 2.48317 19.2328 2.2188 19.2328 1.89778C19.2328 1.57677 19.1289 1.3124 18.9212 1.10468L18.1281 0.311576C17.9204 0.103859 17.656 0 17.335 0C17.014 0 16.7496 0.103859 16.5419 0.311576L16.1453 0.708128C16.032 0.821429 15.9754 0.953612 15.9754 1.10468C15.9754 1.25575 16.032 1.38793 16.1453 1.50123L17.7315 3.08744Z" fill="#161616"/>
</svg>
