<svg width="17" height="20" viewBox="0 0 17 20" fill="none" xmlns="http://www.w3.org/2000/svg">
<path d="M8.24577 11.3379L9.74768 12.2509C9.96364 12.3883 10.1747 12.3785 10.3808 12.2214C10.587 12.0644 10.6606 11.8582 10.6017 11.603L10.2189 9.89493L11.5146 8.77586C11.711 8.59916 11.7748 8.39302 11.7061 8.15743C11.6373 7.92183 11.4656 7.7844 11.1907 7.74514L9.48264 7.59789L8.77586 5.97819C8.67769 5.74259 8.501 5.6248 8.24577 5.6248C7.99055 5.6248 7.81385 5.74259 7.71569 5.97819L7.00891 7.59789L5.30085 7.74514C5.026 7.7844 4.85421 7.92183 4.78549 8.15743C4.71678 8.39302 4.78059 8.59916 4.97691 8.77586L6.27268 9.89493L5.88984 11.603C5.83094 11.8582 5.90456 12.0644 6.11071 12.2214C6.31685 12.3785 6.5279 12.3883 6.74386 12.2509L8.24577 11.3379ZM8.24577 17.6695L3.29831 19.7899C2.513 20.1236 1.76695 20.0598 1.06017 19.5984C0.35339 19.1371 0 18.4843 0 17.6401V2.35594C0 1.70805 0.230685 1.15343 0.692056 0.692056C1.15343 0.230685 1.70805 0 2.35594 0H14.1356C14.7835 0 15.3381 0.230685 15.7995 0.692056C16.2609 1.15343 16.4915 1.70805 16.4915 2.35594V17.6401C16.4915 18.4843 16.1382 19.1371 15.4314 19.5984C14.7246 20.0598 13.9785 20.1236 13.1932 19.7899L8.24577 17.6695ZM8.24577 15.078L14.1356 17.6106V2.35594H2.35594V17.6106L8.24577 15.078ZM8.24577 2.35594H2.35594H14.1356H8.24577Z" fill="#161616"/>
</svg>
