<svg xmlns="http://www.w3.org/2000/svg" xmlns:xlink="http://www.w3.org/1999/xlink" width="100" zoomAndPan="magnify" viewBox="0 0 75 74.999997" height="100" preserveAspectRatio="xMidYMid meet" version="1.0"><defs><clipPath id="e50f53cf7c"><path d="M 3.75 0 L 71.25 0 C 72.246094 0 73.199219 0.394531 73.902344 1.097656 C 74.605469 1.800781 75 2.753906 75 3.75 L 75 71.25 C 75 72.246094 74.605469 73.199219 73.902344 73.902344 C 73.199219 74.605469 72.246094 75 71.25 75 L 3.75 75 C 2.753906 75 1.800781 74.605469 1.097656 73.902344 C 0.394531 73.199219 0 72.246094 0 71.25 L 0 3.75 C 0 2.753906 0.394531 1.800781 1.097656 1.097656 C 1.800781 0.394531 2.753906 0 3.75 0 Z M 3.75 0 " clip-rule="nonzero"/></clipPath><clipPath id="26d6607e71"><path d="M 18.660156 15.9375 L 56.160156 15.9375 L 56.160156 59.0625 L 18.660156 59.0625 Z M 18.660156 15.9375 " clip-rule="nonzero"/></clipPath></defs><g clip-path="url(#e50f53cf7c)"><rect x="-7.5" width="90" fill="#000000" y="-7.5" height="89.999996" fill-opacity="1"/></g><path fill="#ffffff" d="M 39.113281 25.558594 C 39.445312 25.558594 39.710938 25.292969 39.710938 24.964844 L 39.710938 21.335938 L 40.570312 22.554688 C 40.796875 22.871094 41.320312 22.871094 41.542969 22.554688 L 42.40625 21.339844 L 42.40625 24.964844 C 42.40625 25.292969 42.671875 25.558594 43 25.558594 C 43.328125 25.558594 43.597656 25.292969 43.597656 24.964844 L 43.597656 19.464844 C 43.597656 19.203125 43.429688 18.972656 43.179688 18.894531 C 42.933594 18.816406 42.664062 18.90625 42.515625 19.121094 L 41.058594 21.179688 L 39.601562 19.121094 C 39.453125 18.90625 39.183594 18.816406 38.933594 18.894531 C 38.6875 18.972656 38.519531 19.203125 38.519531 19.464844 L 38.519531 24.964844 C 38.519531 25.292969 38.785156 25.558594 39.113281 25.558594 " fill-opacity="1" fill-rule="nonzero"/><path fill="#ffffff" d="M 30.4375 22.804688 L 30.988281 21.25 L 31.585938 22.941406 L 30.390625 22.941406 Z M 28.847656 25.523438 C 29.15625 25.632812 29.496094 25.472656 29.605469 25.160156 L 29.96875 24.132812 L 32.003906 24.132812 L 32.371094 25.160156 C 32.457031 25.40625 32.6875 25.558594 32.929688 25.558594 C 32.996094 25.558594 33.0625 25.546875 33.128906 25.523438 C 33.4375 25.414062 33.601562 25.074219 33.492188 24.765625 L 31.550781 19.265625 C 31.464844 19.027344 31.238281 18.867188 30.988281 18.867188 C 30.734375 18.867188 30.511719 19.027344 30.425781 19.265625 L 29.316406 22.410156 L 28.988281 23.339844 L 28.484375 24.765625 C 28.375 25.074219 28.535156 25.414062 28.847656 25.523438 " fill-opacity="1" fill-rule="nonzero"/><path fill="#ffffff" d="M 33.90625 20.058594 L 34.902344 20.058594 L 34.902344 24.964844 C 34.902344 25.292969 35.167969 25.558594 35.496094 25.558594 C 35.824219 25.558594 36.089844 25.292969 36.089844 24.964844 L 36.089844 20.058594 L 37.085938 20.058594 C 37.414062 20.058594 37.679688 19.792969 37.679688 19.464844 C 37.679688 19.132812 37.414062 18.867188 37.085938 18.867188 L 33.90625 18.867188 C 33.578125 18.867188 33.3125 19.132812 33.3125 19.464844 C 33.3125 19.792969 33.578125 20.058594 33.90625 20.058594 " fill-opacity="1" fill-rule="nonzero"/><g clip-path="url(#26d6607e71)"><path fill="#ffffff" d="M 49.933594 43.945312 L 44.722656 43.945312 C 44.394531 43.945312 44.125 43.675781 44.125 43.347656 C 44.125 43.019531 44.394531 42.753906 44.722656 42.753906 L 49.933594 42.753906 C 50.265625 42.753906 50.53125 43.019531 50.53125 43.347656 C 50.53125 43.675781 50.265625 43.945312 49.933594 43.945312 Z M 49.117188 47.539062 C 49.117188 48.070312 48.6875 48.5 48.160156 48.5 L 46.9375 48.5 C 46.40625 48.5 45.976562 48.070312 45.976562 47.539062 L 45.976562 44.777344 L 49.117188 44.777344 Z M 42.019531 43.945312 L 36.054688 43.945312 C 35.726562 43.945312 35.457031 43.675781 35.457031 43.347656 C 35.457031 43.019531 35.726562 42.753906 36.054688 42.753906 L 42.019531 42.753906 C 42.351562 42.753906 42.617188 43.019531 42.617188 43.347656 C 42.617188 43.675781 42.351562 43.945312 42.019531 43.945312 Z M 42.019531 46.519531 L 36.054688 46.519531 C 35.726562 46.519531 35.457031 46.253906 35.457031 45.921875 C 35.457031 45.59375 35.726562 45.328125 36.054688 45.328125 L 42.019531 45.328125 C 42.351562 45.328125 42.617188 45.59375 42.617188 45.921875 C 42.617188 46.253906 42.351562 46.519531 42.019531 46.519531 Z M 42.019531 49.09375 L 36.054688 49.09375 C 35.726562 49.09375 35.457031 48.828125 35.457031 48.5 C 35.457031 48.171875 35.726562 47.902344 36.054688 47.902344 L 42.019531 47.902344 C 42.351562 47.902344 42.617188 48.171875 42.617188 48.5 C 42.617188 48.828125 42.351562 49.09375 42.019531 49.09375 Z M 32.816406 57.863281 L 31.628906 57.863281 L 31.628906 43.820312 C 31.628906 43.453125 31.5625 43.09375 31.433594 42.75 L 26.03125 28.492188 L 26.027344 28.492188 L 26.027344 17.125 L 45.660156 17.125 L 45.660156 28.492188 L 27.304688 28.492188 L 32.546875 42.328125 C 32.726562 42.808594 32.816406 43.308594 32.816406 43.820312 Z M 47.421875 40.460938 L 35.675781 40.460938 L 31.972656 31.164062 L 43.71875 31.164062 Z M 55.722656 57.863281 L 52.113281 57.863281 L 52.113281 43.820312 C 52.113281 43.453125 52.046875 43.09375 51.914062 42.75 L 46.851562 29.375 L 46.851562 16.527344 C 46.851562 16.199219 46.585938 15.933594 46.257812 15.933594 L 25.433594 15.933594 C 25.105469 15.933594 24.835938 16.199219 24.835938 16.527344 L 24.835938 28.492188 L 22.894531 28.492188 L 22.894531 57.863281 L 19.28125 57.863281 C 18.953125 57.863281 18.6875 58.132812 18.6875 58.460938 C 18.6875 58.789062 18.953125 59.054688 19.28125 59.054688 L 55.722656 59.054688 C 56.054688 59.054688 56.320312 58.789062 56.320312 58.460938 C 56.320312 58.132812 56.054688 57.863281 55.722656 57.863281 " fill-opacity="1" fill-rule="nonzero"/></g></svg>