<svg xmlns="http://www.w3.org/2000/svg" xmlns:xlink="http://www.w3.org/1999/xlink" width="100" zoomAndPan="magnify" viewBox="0 0 75 74.999997" height="100" preserveAspectRatio="xMidYMid meet" version="1.0"><defs><clipPath id="1840178dc5"><path d="M 3.75 0 L 71.25 0 C 72.246094 0 73.199219 0.394531 73.902344 1.097656 C 74.605469 1.800781 75 2.753906 75 3.75 L 75 71.25 C 75 72.246094 74.605469 73.199219 73.902344 73.902344 C 73.199219 74.605469 72.246094 75 71.25 75 L 3.75 75 C 2.753906 75 1.800781 74.605469 1.097656 73.902344 C 0.394531 73.199219 0 72.246094 0 71.25 L 0 3.75 C 0 2.753906 0.394531 1.800781 1.097656 1.097656 C 1.800781 0.394531 2.753906 0 3.75 0 Z M 3.75 0 " clip-rule="nonzero"/></clipPath><clipPath id="213cc4c081"><path d="M 15.9375 15.949219 L 59.0625 15.949219 L 59.0625 59.050781 L 15.9375 59.050781 Z M 15.9375 15.949219 " clip-rule="nonzero"/></clipPath></defs><g clip-path="url(#1840178dc5)"><rect x="-7.5" width="90" fill="#000000" y="-7.5" height="89.999996" fill-opacity="1"/></g><path fill="#ffffff" d="M 41.011719 34.242188 L 42.882812 32.171875 C 43.988281 32.066406 45.628906 30.9375 47.039062 29.207031 C 48.886719 26.9375 49.632812 24.488281 48.710938 23.734375 C 47.785156 22.984375 45.542969 24.21875 43.695312 26.488281 C 42.285156 28.21875 41.515625 30.054688 41.640625 31.160156 L 39.992188 33.414062 L 37.53125 36.226562 C 36.085938 37.871094 41.285156 31.9375 28.5 46.527344 C 28.449219 46.585938 25.898438 49.496094 25.847656 49.558594 C 26.109375 50.585938 27.015625 51.335938 28.09375 51.382812 C 28.140625 51.324219 37.523438 38.871094 37.570312 38.8125 L 38.597656 37.445312 L 41.011719 34.242188 " fill-opacity="1" fill-rule="nonzero"/><path fill="#ffffff" d="M 31.753906 33.125 C 33.753906 33.34375 34.613281 34.886719 36.398438 37.257812 L 37.417969 36.097656 C 35.671875 34.105469 34.308594 32.933594 34.53125 30.886719 C 34.644531 29.84375 34.523438 30.007812 28.402344 22.875 L 28.160156 23.074219 L 33.488281 29.796875 L 33.316406 29.941406 L 27.820312 23.351562 L 27.679688 23.460938 L 29.109375 25.265625 C 30.558594 27.09375 29.734375 26 32.878906 30.296875 L 32.835938 30.328125 L 28.8125 25.507812 L 27.339844 23.742188 L 27.203125 23.851562 L 28.632812 25.652344 L 32.53125 30.578125 L 32.359375 30.71875 L 28.335938 25.894531 L 26.863281 24.128906 L 26.722656 24.242188 L 28.152344 26.042969 L 32.054688 30.964844 L 31.878906 31.105469 L 27.855469 26.285156 L 26.382812 24.519531 L 26.246094 24.628906 L 27.671875 26.433594 L 31.574219 31.355469 L 31.488281 31.425781 L 29.496094 29.210938 L 27.378906 26.671875 L 25.902344 24.90625 L 25.765625 25.019531 L 31.097656 31.742188 L 30.921875 31.886719 L 25.425781 25.296875 L 25.183594 25.496094 C 30.925781 32.953125 30.730469 33.015625 31.753906 33.125 " fill-opacity="1" fill-rule="nonzero"/><path fill="#ffffff" d="M 49.757812 50.175781 L 47.121094 47.167969 L 38.714844 37.574219 L 37.675781 38.953125 L 45.101562 48.808594 L 47.511719 52.003906 C 47.523438 52.011719 47.539062 52.019531 47.550781 52.023438 C 48.046875 51.996094 48.539062 51.816406 48.953125 51.480469 C 49.367188 51.144531 49.640625 50.699219 49.769531 50.222656 C 49.765625 50.207031 49.761719 50.191406 49.757812 50.175781 " fill-opacity="1" fill-rule="nonzero"/><g clip-path="url(#213cc4c081)"><path fill="#ffffff" d="M 37.476562 16.925781 C 26.160156 16.925781 16.953125 26.132812 16.953125 37.449219 C 16.953125 48.765625 26.160156 57.972656 37.476562 57.972656 C 48.792969 57.972656 58 48.765625 58 37.449219 C 58 26.132812 48.792969 16.925781 37.476562 16.925781 Z M 29.09375 57.289062 C 18.0625 52.625 13.042969 39.925781 17.636719 29.070312 C 25.019531 11.609375 49.90625 11.546875 57.316406 29.070312 C 64.789062 46.734375 46.933594 64.835938 29.09375 57.289062 " fill-opacity="1" fill-rule="nonzero"/></g></svg>