<svg xmlns="http://www.w3.org/2000/svg" xmlns:xlink="http://www.w3.org/1999/xlink" width="100" zoomAndPan="magnify" viewBox="0 0 75 74.999997" height="100" preserveAspectRatio="xMidYMid meet" version="1.0"><defs><clipPath id="9b9ea0ab6c"><path d="M 3.75 0 L 71.25 0 C 72.246094 0 73.199219 0.394531 73.902344 1.097656 C 74.605469 1.800781 75 2.753906 75 3.75 L 75 71.25 C 75 72.246094 74.605469 73.199219 73.902344 73.902344 C 73.199219 74.605469 72.246094 75 71.25 75 L 3.75 75 C 2.753906 75 1.800781 74.605469 1.097656 73.902344 C 0.394531 73.199219 0 72.246094 0 71.25 L 0 3.75 C 0 2.753906 0.394531 1.800781 1.097656 1.097656 C 1.800781 0.394531 2.753906 0 3.75 0 Z M 3.75 0 " clip-rule="nonzero"/></clipPath><clipPath id="e0c98b6b63"><path d="M 15.457031 55 L 59.519531 55 L 59.519531 58.195312 L 15.457031 58.195312 Z M 15.457031 55 " clip-rule="nonzero"/></clipPath><clipPath id="ee2434bb6a"><path d="M 18 16.945312 L 57 16.945312 L 57 27 L 18 27 Z M 18 16.945312 " clip-rule="nonzero"/></clipPath></defs><g clip-path="url(#9b9ea0ab6c)"><rect x="-7.5" width="90" fill="#000000" y="-7.5" height="89.999996" fill-opacity="1"/></g><g clip-path="url(#e0c98b6b63)"><path fill="#ffffff" d="M 59.230469 55.917969 L 15.765625 55.917969 C 15.605469 55.917969 15.476562 56.046875 15.476562 56.207031 L 15.476562 58.046875 L 59.515625 58.046875 L 59.515625 56.207031 C 59.515625 56.046875 59.386719 55.917969 59.230469 55.917969 " fill-opacity="1" fill-rule="nonzero"/></g><path fill="#ffffff" d="M 21.367188 49.148438 L 21.367188 49.820312 L 21.035156 49.820312 C 21.019531 49.820312 21.011719 49.832031 21.011719 49.84375 L 21.011719 51.214844 L 25.582031 51.214844 L 25.582031 49.84375 C 25.582031 49.832031 25.570312 49.820312 25.558594 49.820312 L 25.226562 49.820312 L 25.226562 49.148438 C 25.226562 49.132812 25.21875 49.125 25.203125 49.125 L 21.390625 49.125 C 21.375 49.125 21.367188 49.132812 21.367188 49.148438 " fill-opacity="1" fill-rule="nonzero"/><path fill="#ffffff" d="M 25.472656 31.960938 C 25.089844 31.960938 24.78125 31.652344 24.78125 31.269531 C 24.78125 30.886719 25.089844 30.578125 25.472656 30.578125 C 25.855469 30.578125 26.164062 30.886719 26.164062 31.269531 C 26.164062 31.652344 25.855469 31.960938 25.472656 31.960938 Z M 21.121094 31.960938 C 20.738281 31.960938 20.429688 31.652344 20.429688 31.269531 C 20.429688 30.886719 20.738281 30.578125 21.121094 30.578125 C 21.503906 30.578125 21.8125 30.886719 21.8125 31.269531 C 21.8125 31.652344 21.503906 31.960938 21.121094 31.960938 Z M 26.554688 31.269531 C 26.554688 30.671875 26.070312 30.1875 25.472656 30.1875 L 21.121094 30.1875 C 20.523438 30.1875 20.039062 30.671875 20.039062 31.269531 C 20.039062 31.867188 20.523438 32.351562 21.121094 32.351562 C 21.539062 32.351562 21.898438 32.113281 22.078125 31.765625 L 24.515625 31.765625 C 24.695312 32.113281 25.054688 32.351562 25.472656 32.351562 C 26.070312 32.351562 26.554688 31.867188 26.554688 31.269531 " fill-opacity="1" fill-rule="nonzero"/><path fill="#ffffff" d="M 24.273438 32.207031 L 22.316406 32.207031 C 22.175781 32.390625 21.996094 32.539062 21.792969 32.640625 L 21.792969 48.679688 L 24.800781 48.679688 L 24.800781 32.640625 C 24.597656 32.539062 24.417969 32.390625 24.273438 32.207031 " fill-opacity="1" fill-rule="nonzero"/><path fill="#ffffff" d="M 28.757812 49.148438 L 28.757812 49.820312 L 28.425781 49.820312 C 28.414062 49.820312 28.402344 49.832031 28.402344 49.84375 L 28.402344 51.214844 L 32.972656 51.214844 L 32.972656 49.84375 C 32.972656 49.832031 32.964844 49.820312 32.949219 49.820312 L 32.621094 49.820312 L 32.621094 49.148438 C 32.621094 49.132812 32.609375 49.125 32.597656 49.125 L 28.78125 49.125 C 28.769531 49.125 28.757812 49.132812 28.757812 49.148438 " fill-opacity="1" fill-rule="nonzero"/><path fill="#ffffff" d="M 32.863281 31.960938 C 32.480469 31.960938 32.171875 31.652344 32.171875 31.269531 C 32.171875 30.886719 32.480469 30.578125 32.863281 30.578125 C 33.246094 30.578125 33.554688 30.886719 33.554688 31.269531 C 33.554688 31.652344 33.246094 31.960938 32.863281 31.960938 Z M 28.511719 31.960938 C 28.128906 31.960938 27.820312 31.652344 27.820312 31.269531 C 27.820312 30.886719 28.128906 30.578125 28.511719 30.578125 C 28.894531 30.578125 29.203125 30.886719 29.203125 31.269531 C 29.203125 31.652344 28.894531 31.960938 28.511719 31.960938 Z M 33.945312 31.269531 C 33.945312 30.671875 33.460938 30.1875 32.863281 30.1875 L 28.511719 30.1875 C 27.914062 30.1875 27.429688 30.671875 27.429688 31.269531 C 27.429688 31.867188 27.914062 32.351562 28.511719 32.351562 C 28.929688 32.351562 29.289062 32.113281 29.46875 31.765625 L 31.90625 31.765625 C 32.085938 32.113281 32.445312 32.351562 32.863281 32.351562 C 33.460938 32.351562 33.945312 31.867188 33.945312 31.269531 " fill-opacity="1" fill-rule="nonzero"/><path fill="#ffffff" d="M 31.667969 32.207031 L 29.710938 32.207031 C 29.566406 32.390625 29.386719 32.539062 29.183594 32.640625 L 29.183594 48.679688 L 32.191406 48.679688 L 32.191406 32.640625 C 31.988281 32.539062 31.808594 32.390625 31.667969 32.207031 " fill-opacity="1" fill-rule="nonzero"/><path fill="#ffffff" d="M 49.765625 49.148438 L 49.765625 49.820312 L 49.433594 49.820312 C 49.421875 49.820312 49.410156 49.832031 49.410156 49.84375 L 49.410156 51.214844 L 53.980469 51.214844 L 53.980469 49.84375 C 53.980469 49.832031 53.972656 49.820312 53.957031 49.820312 L 53.628906 49.820312 L 53.628906 49.148438 C 53.628906 49.132812 53.617188 49.125 53.605469 49.125 L 49.789062 49.125 C 49.777344 49.125 49.765625 49.132812 49.765625 49.148438 " fill-opacity="1" fill-rule="nonzero"/><path fill="#ffffff" d="M 53.871094 31.960938 C 53.492188 31.960938 53.179688 31.652344 53.179688 31.269531 C 53.179688 30.886719 53.492188 30.578125 53.871094 30.578125 C 54.253906 30.578125 54.5625 30.886719 54.5625 31.269531 C 54.5625 31.652344 54.253906 31.960938 53.871094 31.960938 Z M 49.519531 31.960938 C 49.136719 31.960938 48.828125 31.652344 48.828125 31.269531 C 48.828125 30.886719 49.136719 30.578125 49.519531 30.578125 C 49.902344 30.578125 50.210938 30.886719 50.210938 31.269531 C 50.210938 31.652344 49.902344 31.960938 49.519531 31.960938 Z M 53.871094 30.1875 L 49.519531 30.1875 C 48.921875 30.1875 48.4375 30.671875 48.4375 31.269531 C 48.4375 31.867188 48.921875 32.351562 49.519531 32.351562 C 49.9375 32.351562 50.296875 32.113281 50.476562 31.765625 L 52.914062 31.765625 C 53.09375 32.113281 53.453125 32.351562 53.871094 32.351562 C 54.46875 32.351562 54.957031 31.867188 54.957031 31.269531 C 54.957031 30.671875 54.46875 30.1875 53.871094 30.1875 " fill-opacity="1" fill-rule="nonzero"/><path fill="#ffffff" d="M 52.675781 32.207031 L 50.71875 32.207031 C 50.574219 32.390625 50.394531 32.539062 50.191406 32.640625 L 50.191406 48.679688 L 53.203125 48.679688 L 53.203125 32.640625 C 52.996094 32.539062 52.816406 32.390625 52.675781 32.207031 " fill-opacity="1" fill-rule="nonzero"/><path fill="#ffffff" d="M 42.375 49.148438 L 42.375 49.820312 L 42.042969 49.820312 C 42.027344 49.820312 42.019531 49.832031 42.019531 49.84375 L 42.019531 51.214844 L 46.589844 51.214844 L 46.589844 49.84375 C 46.589844 49.832031 46.582031 49.820312 46.566406 49.820312 L 46.234375 49.820312 L 46.234375 49.148438 C 46.234375 49.132812 46.226562 49.125 46.210938 49.125 L 42.398438 49.125 C 42.382812 49.125 42.375 49.132812 42.375 49.148438 " fill-opacity="1" fill-rule="nonzero"/><path fill="#ffffff" d="M 46.480469 31.960938 C 46.097656 31.960938 45.789062 31.652344 45.789062 31.269531 C 45.789062 30.886719 46.097656 30.578125 46.480469 30.578125 C 46.863281 30.578125 47.171875 30.886719 47.171875 31.269531 C 47.171875 31.652344 46.863281 31.960938 46.480469 31.960938 Z M 42.128906 31.960938 C 41.746094 31.960938 41.4375 31.652344 41.4375 31.269531 C 41.4375 30.886719 41.746094 30.578125 42.128906 30.578125 C 42.511719 30.578125 42.820312 30.886719 42.820312 31.269531 C 42.820312 31.652344 42.511719 31.960938 42.128906 31.960938 Z M 47.5625 31.269531 C 47.5625 30.671875 47.078125 30.1875 46.480469 30.1875 L 42.128906 30.1875 C 41.53125 30.1875 41.046875 30.671875 41.046875 31.269531 C 41.046875 31.867188 41.53125 32.351562 42.128906 32.351562 C 42.546875 32.351562 42.90625 32.113281 43.085938 31.765625 L 45.523438 31.765625 C 45.703125 32.113281 46.0625 32.351562 46.480469 32.351562 C 47.078125 32.351562 47.5625 31.867188 47.5625 31.269531 " fill-opacity="1" fill-rule="nonzero"/><path fill="#ffffff" d="M 45.28125 32.207031 L 43.328125 32.207031 C 43.183594 32.390625 43.003906 32.539062 42.800781 32.640625 L 42.800781 48.679688 L 45.808594 48.679688 L 45.808594 32.640625 C 45.605469 32.539062 45.425781 32.390625 45.28125 32.207031 " fill-opacity="1" fill-rule="nonzero"/><g clip-path="url(#ee2434bb6a)"><path fill="#ffffff" d="M 37.496094 17.945312 L 53.03125 26.105469 L 21.960938 26.105469 Z M 37.496094 16.945312 L 18.371094 26.992188 L 56.621094 26.992188 L 37.496094 16.945312 " fill-opacity="1" fill-rule="nonzero"/></g><path fill="#ffffff" d="M 55.679688 29.582031 L 56.621094 27.523438 L 18.371094 27.523438 L 19.3125 29.582031 L 55.679688 29.582031 " fill-opacity="1" fill-rule="nonzero"/><path fill="#ffffff" d="M 33.269531 24.34375 C 33.21875 24.398438 33.136719 24.425781 33.027344 24.425781 L 32.578125 24.425781 L 32.578125 23.882812 L 32.996094 23.882812 C 33.132812 23.882812 33.222656 23.910156 33.273438 23.96875 C 33.324219 24.027344 33.347656 24.089844 33.347656 24.160156 C 33.347656 24.226562 33.324219 24.289062 33.269531 24.34375 Z M 32.578125 22.742188 L 32.988281 22.742188 C 33.195312 22.742188 33.296875 22.828125 33.296875 22.992188 C 33.296875 23.054688 33.273438 23.113281 33.230469 23.167969 C 33.1875 23.21875 33.113281 23.246094 33.003906 23.246094 L 32.578125 23.246094 Z M 33.660156 23.539062 C 33.824219 23.492188 33.949219 23.410156 34.035156 23.289062 C 34.117188 23.167969 34.160156 23.035156 34.160156 22.886719 C 34.160156 22.679688 34.089844 22.5 33.941406 22.339844 C 33.796875 22.179688 33.570312 22.101562 33.253906 22.101562 L 31.734375 22.101562 L 31.734375 25.09375 L 33.160156 25.09375 C 33.605469 25.09375 33.898438 25.007812 34.035156 24.832031 C 34.171875 24.65625 34.238281 24.457031 34.238281 24.234375 C 34.238281 23.863281 34.046875 23.632812 33.660156 23.539062 " fill-opacity="1" fill-rule="nonzero"/><path fill="#ffffff" d="M 35.453125 23.851562 L 35.695312 22.980469 L 35.9375 23.851562 Z M 35.296875 22.101562 L 34.371094 25.09375 L 35.117188 25.09375 L 35.296875 24.503906 L 36.097656 24.503906 L 36.269531 25.09375 L 37.207031 25.09375 L 36.265625 22.101562 L 35.296875 22.101562 " fill-opacity="1" fill-rule="nonzero"/><path fill="#ffffff" d="M 39.292969 22.988281 C 39.292969 23.253906 39.316406 23.515625 39.363281 23.769531 C 39.289062 23.605469 39.183594 23.414062 39.046875 23.195312 L 38.347656 22.101562 L 37.480469 22.101562 L 37.480469 25.09375 L 38.226562 25.09375 L 38.226562 23.644531 C 38.226562 23.507812 38.203125 23.347656 38.152344 23.152344 C 38.261719 23.394531 38.367188 23.601562 38.472656 23.769531 L 39.292969 25.09375 L 40.039062 25.09375 L 40.039062 22.101562 L 39.292969 22.101562 L 39.292969 22.988281 " fill-opacity="1" fill-rule="nonzero"/><path fill="#ffffff" d="M 42.320312 23.195312 L 43.078125 22.101562 L 42.25 22.101562 L 41.425781 23.339844 L 41.425781 22.101562 L 40.5625 22.101562 L 40.5625 25.09375 L 41.425781 25.09375 L 41.425781 24.402344 L 41.738281 23.960938 L 42.253906 25.09375 L 43.257812 25.09375 L 42.320312 23.195312 " fill-opacity="1" fill-rule="nonzero"/><path fill="#ffffff" d="M 57.496094 54.074219 C 57.496094 53.917969 57.367188 53.789062 57.210938 53.789062 L 17.785156 53.789062 C 17.625 53.789062 17.496094 53.917969 17.496094 54.074219 L 17.496094 55.476562 L 57.496094 55.476562 L 57.496094 54.074219 " fill-opacity="1" fill-rule="nonzero"/><path fill="#ffffff" d="M 54.941406 51.945312 C 54.941406 51.785156 54.8125 51.65625 54.65625 51.65625 L 20.335938 51.65625 C 20.179688 51.65625 20.050781 51.785156 20.050781 51.945312 L 20.050781 53.34375 L 54.941406 53.34375 L 54.941406 51.945312 " fill-opacity="1" fill-rule="nonzero"/><path fill="#ffffff" d="M 37.648438 42.570312 C 36.929688 42.570312 36.480469 42.269531 36.304688 41.660156 L 34.234375 42.042969 C 34.601562 43.378906 35.5 44.128906 36.925781 44.296875 L 36.925781 45.320312 L 38.0625 45.320312 L 38.0625 44.296875 C 38.902344 44.203125 39.5625 43.929688 40.039062 43.472656 C 40.519531 43.019531 40.757812 42.453125 40.757812 41.78125 C 40.757812 41.300781 40.636719 40.882812 40.390625 40.53125 C 40.140625 40.179688 39.832031 39.929688 39.460938 39.78125 C 39.089844 39.632812 38.480469 39.464844 37.625 39.277344 C 37.25 39.195312 37.019531 39.113281 36.9375 39.03125 C 36.855469 38.949219 36.8125 38.851562 36.8125 38.738281 C 36.8125 38.421875 37.058594 38.265625 37.546875 38.265625 C 38.128906 38.265625 38.515625 38.515625 38.707031 39.015625 L 40.558594 38.4375 C 40.167969 37.367188 39.335938 36.761719 38.0625 36.621094 L 38.0625 35.632812 L 36.925781 35.632812 L 36.925781 36.644531 C 36.140625 36.761719 35.558594 37.050781 35.175781 37.503906 C 34.792969 37.960938 34.601562 38.480469 34.601562 39.070312 C 34.601562 39.601562 34.777344 40.070312 35.125 40.480469 C 35.472656 40.890625 36.300781 41.230469 37.601562 41.496094 C 37.929688 41.5625 38.160156 41.640625 38.292969 41.730469 C 38.421875 41.820312 38.488281 41.949219 38.488281 42.109375 C 38.488281 42.417969 38.207031 42.570312 37.648438 42.570312 " fill-opacity="1" fill-rule="nonzero"/></svg>