<svg xmlns="http://www.w3.org/2000/svg" xmlns:xlink="http://www.w3.org/1999/xlink" width="100" zoomAndPan="magnify" viewBox="0 0 75 74.999997" height="100" preserveAspectRatio="xMidYMid meet" version="1.0"><defs><clipPath id="35e38d811f"><path d="M 3.75 0 L 71.25 0 C 72.246094 0 73.199219 0.394531 73.902344 1.097656 C 74.605469 1.800781 75 2.753906 75 3.75 L 75 71.25 C 75 72.246094 74.605469 73.199219 73.902344 73.902344 C 73.199219 74.605469 72.246094 75 71.25 75 L 3.75 75 C 2.753906 75 1.800781 74.605469 1.097656 73.902344 C 0.394531 73.199219 0 72.246094 0 71.25 L 0 3.75 C 0 2.753906 0.394531 1.800781 1.097656 1.097656 C 1.800781 0.394531 2.753906 0 3.75 0 Z M 3.75 0 " clip-rule="nonzero"/></clipPath><clipPath id="933cc380ac"><path d="M 19.523438 15.9375 L 55.148438 15.9375 L 55.148438 59.0625 L 19.523438 59.0625 Z M 19.523438 15.9375 " clip-rule="nonzero"/></clipPath></defs><g clip-path="url(#35e38d811f)"><rect x="-7.5" width="90" fill="#000000" y="-7.5" height="89.999996" fill-opacity="1"/></g><g clip-path="url(#933cc380ac)"><path fill="#ffffff" d="M 53.023438 34.25 C 53.023438 34.324219 52.964844 34.378906 52.894531 34.378906 L 51.296875 34.402344 C 51.199219 34.40625 51.132812 34.304688 51.171875 34.214844 L 52.261719 31.773438 C 52.277344 31.742188 52.277344 31.707031 52.265625 31.671875 L 51.980469 30.921875 C 51.953125 30.847656 51.996094 30.761719 52.074219 30.746094 L 52.925781 30.53125 C 52.949219 30.527344 52.972656 30.527344 52.996094 30.53125 L 53.054688 30.550781 C 53.113281 30.566406 53.152344 30.621094 53.152344 30.683594 Z M 50.378906 34.417969 C 50.300781 34.417969 50.238281 34.351562 50.242188 34.277344 L 50.382812 31.265625 C 50.386719 31.207031 50.425781 31.15625 50.484375 31.140625 L 50.871094 31.042969 C 50.921875 31.03125 50.972656 31.046875 51.003906 31.085938 L 51.550781 31.683594 C 51.585938 31.722656 51.597656 31.777344 51.574219 31.828125 L 50.5 34.335938 C 50.480469 34.382812 50.429688 34.414062 50.378906 34.417969 Z M 40.636719 31.167969 L 25.4375 31.167969 L 25.4375 19.34375 L 40.636719 19.34375 Z M 55.449219 28.414062 L 54.664062 26.84375 C 54.644531 26.808594 54.609375 26.78125 54.570312 26.773438 L 53.386719 26.535156 C 53.363281 26.53125 53.339844 26.519531 53.324219 26.503906 L 52.1875 25.46875 C 52.179688 25.464844 52.175781 25.460938 52.171875 25.453125 L 50.261719 23.140625 C 50.253906 23.128906 50.242188 23.121094 50.230469 23.113281 L 46.316406 20.609375 C 46.25 20.570312 46.167969 20.589844 46.128906 20.652344 L 45.675781 21.390625 C 45.636719 21.453125 45.65625 21.535156 45.71875 21.574219 L 49.292969 23.867188 C 49.308594 23.875 49.320312 23.886719 49.328125 23.902344 L 50.914062 26.125 C 50.933594 26.152344 50.941406 26.1875 50.9375 26.21875 L 50.828125 27.050781 C 50.824219 27.070312 50.816406 27.089844 50.808594 27.105469 L 49.804688 28.660156 C 49.789062 28.683594 49.78125 28.707031 49.78125 28.734375 L 49.777344 29.433594 C 49.777344 29.488281 49.746094 29.535156 49.699219 29.554688 L 49.59375 29.605469 C 49.546875 29.625 49.515625 29.675781 49.515625 29.726562 L 49.585938 34.863281 C 49.585938 34.925781 49.632812 34.980469 49.695312 34.992188 L 52.863281 35.558594 C 52.929688 35.570312 52.976562 35.628906 52.976562 35.695312 L 52.96875 35.867188 C 52.96875 35.878906 52.972656 35.882812 52.976562 35.894531 L 53.128906 48.59375 C 53.144531 49.859375 53.160156 51.171875 52.6875 52.300781 C 52.308594 53.210938 51.390625 54.179688 50.3125 54.128906 C 49.246094 54.085938 48.386719 53.050781 48.085938 52.050781 C 47.730469 50.855469 47.898438 49.53125 48.054688 48.25 C 48.144531 47.550781 48.273438 46.828125 48.410156 46.066406 C 48.929688 43.15625 49.519531 39.855469 47.609375 37.195312 C 46.695312 35.917969 45.417969 35 44.015625 34.496094 L 44.015625 17.347656 C 44.015625 16.585938 43.398438 15.964844 42.632812 15.964844 L 23.441406 15.964844 C 22.679688 15.964844 22.058594 16.585938 22.058594 17.347656 L 22.058594 54.25 L 20.578125 54.25 C 19.996094 54.25 19.523438 54.71875 19.523438 55.300781 L 19.523438 57.984375 C 19.523438 58.5625 19.996094 59.035156 20.578125 59.035156 L 45.5 59.035156 C 46.078125 59.035156 46.550781 58.5625 46.550781 57.984375 L 46.550781 55.300781 C 46.550781 54.71875 46.078125 54.25 45.5 54.25 L 44.015625 54.25 L 44.015625 36.011719 C 44.96875 36.445312 45.824219 37.121094 46.464844 38.015625 C 48.03125 40.195312 47.519531 43.054688 47.023438 45.820312 C 46.890625 46.566406 46.75 47.339844 46.660156 48.078125 C 46.488281 49.433594 46.296875 50.972656 46.738281 52.453125 C 47.164062 53.886719 48.449219 55.460938 50.257812 55.535156 C 50.300781 55.539062 50.347656 55.539062 50.390625 55.539062 C 52.101562 55.539062 53.425781 54.199219 53.988281 52.839844 C 54.570312 51.441406 54.550781 49.921875 54.535156 48.578125 L 54.382812 35.804688 L 54.371094 35.804688 L 54.578125 31.113281 C 54.582031 31.066406 54.605469 31.023438 54.648438 31.003906 L 54.851562 30.890625 C 54.894531 30.867188 54.917969 30.824219 54.921875 30.777344 L 54.96875 29.464844 C 54.96875 29.445312 54.976562 29.425781 54.984375 29.40625 L 55.449219 28.539062 C 55.46875 28.5 55.46875 28.453125 55.449219 28.414062 " fill-opacity="1" fill-rule="nonzero"/></g></svg>