<svg xmlns="http://www.w3.org/2000/svg" xmlns:xlink="http://www.w3.org/1999/xlink" width="100" zoomAndPan="magnify" viewBox="0 0 75 74.999997" height="100" preserveAspectRatio="xMidYMid meet" version="1.0"><defs><clipPath id="2c098edba9"><path d="M 3.75 0 L 71.25 0 C 72.246094 0 73.199219 0.394531 73.902344 1.097656 C 74.605469 1.800781 75 2.753906 75 3.75 L 75 71.25 C 75 72.246094 74.605469 73.199219 73.902344 73.902344 C 73.199219 74.605469 72.246094 75 71.25 75 L 3.75 75 C 2.753906 75 1.800781 74.605469 1.097656 73.902344 C 0.394531 73.199219 0 72.246094 0 71.25 L 0 3.75 C 0 2.753906 0.394531 1.800781 1.097656 1.097656 C 1.800781 0.394531 2.753906 0 3.75 0 Z M 3.75 0 " clip-rule="nonzero"/></clipPath><clipPath id="d7b98cc05b"><path d="M 11.480469 54 L 63.980469 54 L 63.980469 59.0625 L 11.480469 59.0625 Z M 11.480469 54 " clip-rule="nonzero"/></clipPath><clipPath id="a190ca8926"><path d="M 11.480469 23 L 26 23 L 26 28 L 11.480469 28 Z M 11.480469 23 " clip-rule="nonzero"/></clipPath><clipPath id="d44eb28d5b"><path d="M 21 15.9375 L 53 15.9375 L 53 21 L 21 21 Z M 21 15.9375 " clip-rule="nonzero"/></clipPath></defs><g clip-path="url(#2c098edba9)"><rect x="-7.5" width="90" fill="#000000" y="-7.5" height="89.999996" fill-opacity="1"/></g><g clip-path="url(#d7b98cc05b)"><path fill="#ffffff" d="M 62.890625 59.0625 L 12.105469 59.0625 C 11.769531 59.0625 11.496094 58.789062 11.496094 58.453125 L 11.496094 55.125 C 11.496094 54.789062 11.769531 54.515625 12.105469 54.515625 L 62.890625 54.515625 C 63.226562 54.515625 63.5 54.789062 63.5 55.125 L 63.5 58.453125 C 63.5 58.789062 63.226562 59.0625 62.890625 59.0625 Z M 62.890625 59.0625 " fill-opacity="1" fill-rule="evenodd"/></g><path fill="#ffffff" d="M 24.5625 55.738281 L 14.539062 55.738281 C 14.203125 55.738281 13.929688 55.464844 13.929688 55.128906 L 13.929688 27.339844 C 13.929688 27.003906 14.203125 26.730469 14.539062 26.730469 L 24.5625 26.730469 C 24.898438 26.730469 25.171875 27.003906 25.171875 27.339844 L 25.171875 55.125 C 25.171875 55.464844 24.898438 55.738281 24.5625 55.738281 Z M 22.351562 33.621094 L 16.753906 33.621094 C 16.417969 33.621094 16.144531 33.347656 16.144531 33.011719 L 16.144531 30.460938 C 16.144531 30.125 16.417969 29.851562 16.753906 29.851562 L 22.351562 29.851562 C 22.6875 29.851562 22.960938 30.125 22.960938 30.460938 L 22.960938 33.011719 C 22.960938 33.347656 22.6875 33.621094 22.351562 33.621094 Z M 22.351562 39.953125 L 16.753906 39.953125 C 16.417969 39.953125 16.144531 39.679688 16.144531 39.34375 L 16.144531 36.792969 C 16.144531 36.457031 16.417969 36.183594 16.753906 36.183594 L 22.351562 36.183594 C 22.6875 36.183594 22.960938 36.457031 22.960938 36.792969 L 22.960938 39.34375 C 22.960938 39.679688 22.6875 39.953125 22.351562 39.953125 Z M 22.351562 46.285156 L 16.753906 46.285156 C 16.417969 46.285156 16.144531 46.011719 16.144531 45.675781 L 16.144531 43.125 C 16.144531 42.789062 16.417969 42.515625 16.753906 42.515625 L 22.351562 42.515625 C 22.6875 42.515625 22.960938 42.789062 22.960938 43.125 L 22.960938 45.675781 C 22.960938 46.011719 22.6875 46.285156 22.351562 46.285156 Z M 22.351562 52.617188 L 16.753906 52.617188 C 16.417969 52.617188 16.144531 52.34375 16.144531 52.007812 L 16.144531 49.460938 C 16.144531 49.121094 16.417969 48.851562 16.753906 48.851562 L 22.351562 48.851562 C 22.6875 48.851562 22.960938 49.125 22.960938 49.460938 L 22.960938 52.007812 C 22.960938 52.34375 22.6875 52.617188 22.351562 52.617188 Z M 22.351562 52.617188 " fill-opacity="1" fill-rule="evenodd"/><path fill="#ffffff" d="M 49.722656 55.738281 L 45.8125 55.738281 C 46.152344 55.738281 46.425781 55.464844 46.421875 55.125 L 46.421875 36.523438 C 46.421875 36.1875 46.148438 35.914062 45.8125 35.914062 L 28.472656 35.914062 C 28.136719 35.914062 27.863281 36.1875 27.863281 36.523438 L 27.863281 55.128906 C 27.863281 55.464844 28.136719 55.738281 28.472656 55.738281 L 24.5625 55.738281 C 24.226562 55.738281 23.953125 55.464844 23.953125 55.125 L 23.964844 19.734375 C 23.964844 19.398438 24.238281 19.125 24.574219 19.125 L 49.726562 19.125 C 50.0625 19.125 50.335938 19.398438 50.335938 19.734375 L 50.335938 55.128906 C 50.335938 55.464844 50.0625 55.738281 49.726562 55.738281 Z M 46.570312 26.78125 L 27.785156 26.78125 C 27.445312 26.78125 27.175781 26.511719 27.175781 26.171875 L 27.175781 23.199219 C 27.175781 22.863281 27.445312 22.589844 27.785156 22.589844 L 46.570312 22.589844 C 46.90625 22.589844 47.179688 22.863281 47.179688 23.199219 L 47.179688 26.171875 C 47.179688 26.511719 46.90625 26.78125 46.570312 26.78125 Z M 46.570312 33.667969 L 27.785156 33.667969 C 27.445312 33.667969 27.175781 33.394531 27.175781 33.058594 L 27.175781 30.085938 C 27.175781 29.746094 27.445312 29.476562 27.785156 29.476562 L 46.570312 29.476562 C 46.90625 29.476562 47.179688 29.746094 47.179688 30.085938 L 47.179688 33.058594 C 47.179688 33.394531 46.90625 33.667969 46.570312 33.667969 Z M 46.570312 33.667969 " fill-opacity="1" fill-rule="evenodd"/><path fill="#ffffff" d="M 59.746094 55.738281 L 49.722656 55.738281 C 49.386719 55.738281 49.113281 55.464844 49.113281 55.128906 L 49.113281 27.339844 C 49.113281 27.003906 49.386719 26.730469 49.722656 26.730469 L 59.746094 26.730469 C 60.082031 26.730469 60.355469 27.003906 60.355469 27.339844 L 60.355469 55.125 C 60.355469 55.464844 60.082031 55.738281 59.746094 55.738281 Z M 57.535156 33.621094 L 51.9375 33.621094 C 51.597656 33.621094 51.328125 33.347656 51.328125 33.011719 L 51.328125 30.460938 C 51.328125 30.125 51.601562 29.851562 51.9375 29.851562 L 57.535156 29.851562 C 57.871094 29.851562 58.144531 30.125 58.144531 30.460938 L 58.144531 33.011719 C 58.144531 33.347656 57.871094 33.621094 57.535156 33.621094 Z M 57.535156 39.953125 L 51.9375 39.953125 C 51.597656 39.953125 51.328125 39.679688 51.328125 39.34375 L 51.328125 36.792969 C 51.328125 36.457031 51.601562 36.183594 51.9375 36.183594 L 57.535156 36.183594 C 57.871094 36.183594 58.144531 36.457031 58.144531 36.792969 L 58.144531 39.34375 C 58.144531 39.679688 57.871094 39.953125 57.535156 39.953125 Z M 57.535156 46.285156 L 51.9375 46.285156 C 51.597656 46.285156 51.328125 46.011719 51.328125 45.675781 L 51.328125 43.125 C 51.328125 42.789062 51.601562 42.515625 51.9375 42.515625 L 57.535156 42.515625 C 57.871094 42.515625 58.144531 42.789062 58.144531 43.125 L 58.144531 45.675781 C 58.144531 46.011719 57.871094 46.285156 57.535156 46.285156 Z M 57.535156 52.617188 L 51.9375 52.617188 C 51.597656 52.617188 51.328125 52.34375 51.328125 52.007812 L 51.328125 49.460938 C 51.328125 49.121094 51.601562 48.851562 51.9375 48.851562 L 57.535156 48.851562 C 57.871094 48.851562 58.144531 49.125 58.144531 49.460938 L 58.144531 52.007812 C 58.144531 52.34375 57.871094 52.617188 57.535156 52.617188 Z M 57.535156 52.617188 " fill-opacity="1" fill-rule="evenodd"/><path fill="#ffffff" d="M 61.734375 27.949219 L 49.722656 27.949219 C 49.386719 27.949219 49.113281 27.675781 49.113281 27.339844 L 49.113281 24.152344 C 49.113281 23.816406 49.386719 23.542969 49.722656 23.542969 L 61.734375 23.542969 C 62.070312 23.542969 62.34375 23.816406 62.34375 24.152344 L 62.34375 27.339844 C 62.34375 27.679688 62.070312 27.949219 61.734375 27.949219 Z M 61.734375 27.949219 " fill-opacity="1" fill-rule="evenodd"/><g clip-path="url(#a190ca8926)"><path fill="#ffffff" d="M 24.5625 27.949219 L 12.550781 27.949219 C 12.214844 27.949219 11.941406 27.675781 11.941406 27.339844 L 11.941406 24.152344 C 11.941406 23.816406 12.214844 23.542969 12.550781 23.542969 L 24.5625 23.542969 C 24.898438 23.542969 25.171875 23.816406 25.171875 24.152344 L 25.171875 27.339844 C 25.171875 27.679688 24.898438 27.949219 24.5625 27.949219 Z M 24.5625 27.949219 " fill-opacity="1" fill-rule="evenodd"/></g><g clip-path="url(#d44eb28d5b)"><path fill="#ffffff" d="M 51.710938 20.34375 L 22.574219 20.34375 C 22.238281 20.34375 21.964844 20.070312 21.964844 19.734375 L 21.964844 16.546875 C 21.964844 16.210938 22.238281 15.9375 22.574219 15.9375 L 51.710938 15.9375 C 52.050781 15.9375 52.320312 16.210938 52.320312 16.546875 L 52.320312 19.734375 C 52.320312 20.070312 52.050781 20.34375 51.710938 20.34375 Z M 51.710938 20.34375 " fill-opacity="1" fill-rule="evenodd"/></g><path fill="#ffffff" d="M 32.269531 43.679688 L 36.535156 43.679688 L 36.535156 55.023438 L 32.269531 55.023438 Z M 32.269531 43.679688 " fill-opacity="1" fill-rule="evenodd"/><path fill="#ffffff" d="M 37.753906 43.679688 L 42.015625 43.679688 L 42.015625 55.023438 L 37.753906 55.023438 Z M 37.753906 43.679688 " fill-opacity="1" fill-rule="evenodd"/><path fill="#ffffff" d="M 29.082031 37.132812 L 45.203125 37.132812 L 45.203125 39.546875 L 29.082031 39.546875 Z M 29.082031 37.132812 " fill-opacity="1" fill-rule="evenodd"/><path fill="#ffffff" d="M 28.390625 30.691406 L 45.960938 30.691406 L 45.960938 32.449219 L 28.390625 32.449219 Z M 28.390625 30.691406 " fill-opacity="1" fill-rule="evenodd"/><path fill="#ffffff" d="M 28.390625 25.5625 L 45.960938 25.5625 L 45.960938 23.808594 L 28.390625 23.808594 Z M 28.390625 25.5625 " fill-opacity="1" fill-rule="evenodd"/><path fill="#ffffff" d="M 45.203125 40.765625 L 29.082031 40.765625 L 29.082031 55.023438 L 31.050781 55.023438 L 31.050781 43.070312 C 31.050781 42.730469 31.324219 42.460938 31.660156 42.460938 L 42.625 42.460938 C 42.960938 42.460938 43.234375 42.734375 43.234375 43.070312 L 43.234375 55.023438 L 45.203125 55.023438 Z M 45.203125 40.765625 " fill-opacity="1" fill-rule="evenodd"/><path fill="#ffffff" d="M 21.742188 45.066406 L 21.742188 43.734375 L 17.363281 43.734375 L 17.363281 45.066406 Z M 21.742188 45.066406 " fill-opacity="1" fill-rule="evenodd"/><path fill="#ffffff" d="M 21.742188 50.066406 L 17.363281 50.066406 L 17.363281 51.398438 L 21.742188 51.398438 Z M 21.742188 50.066406 " fill-opacity="1" fill-rule="evenodd"/><path fill="#ffffff" d="M 17.363281 37.402344 L 21.742188 37.402344 L 21.742188 38.734375 L 17.363281 38.734375 Z M 17.363281 37.402344 " fill-opacity="1" fill-rule="evenodd"/><path fill="#ffffff" d="M 17.363281 31.070312 L 21.742188 31.070312 L 21.742188 32.398438 L 17.363281 32.398438 Z M 17.363281 31.070312 " fill-opacity="1" fill-rule="evenodd"/><path fill="#ffffff" d="M 52.546875 32.398438 Z M 52.546875 31.070312 L 52.546875 32.398438 L 56.925781 32.398438 L 56.925781 31.070312 Z M 52.546875 31.070312 " fill-opacity="1" fill-rule="evenodd"/><path fill="#ffffff" d="M 52.546875 38.734375 Z M 56.925781 37.402344 L 52.546875 37.402344 L 52.546875 38.734375 L 56.925781 38.734375 Z M 56.925781 37.402344 " fill-opacity="1" fill-rule="evenodd"/><path fill="#ffffff" d="M 52.546875 45.066406 Z M 56.925781 43.734375 L 52.546875 43.734375 L 52.546875 45.066406 L 56.925781 45.066406 Z M 56.925781 43.734375 " fill-opacity="1" fill-rule="evenodd"/><path fill="#ffffff" d="M 52.546875 51.398438 Z M 56.925781 50.066406 L 52.546875 50.066406 L 52.546875 51.398438 L 56.925781 51.398438 Z M 56.925781 50.066406 " fill-opacity="1" fill-rule="evenodd"/></svg>