<svg xmlns="http://www.w3.org/2000/svg" xmlns:xlink="http://www.w3.org/1999/xlink" width="100" zoomAndPan="magnify" viewBox="0 0 75 74.999997" height="100" preserveAspectRatio="xMidYMid meet" version="1.0"><defs><clipPath id="0c81f2c878"><path d="M 3.75 0 L 71.25 0 C 72.246094 0 73.199219 0.394531 73.902344 1.097656 C 74.605469 1.800781 75 2.753906 75 3.75 L 75 71.25 C 75 72.246094 74.605469 73.199219 73.902344 73.902344 C 73.199219 74.605469 72.246094 75 71.25 75 L 3.75 75 C 2.753906 75 1.800781 74.605469 1.097656 73.902344 C 0.394531 73.199219 0 72.246094 0 71.25 L 0 3.75 C 0 2.753906 0.394531 1.800781 1.097656 1.097656 C 1.800781 0.394531 2.753906 0 3.75 0 Z M 3.75 0 " clip-rule="nonzero"/></clipPath></defs><g clip-path="url(#0c81f2c878)"><rect x="-7.5" width="90" fill="#000000" y="-7.5" height="89.999996" fill-opacity="1"/></g><path fill="#ffffff" d="M 55.582031 26.980469 L 55.582031 47.367188 C 55.582031 48.078125 55.046875 48.652344 54.382812 48.652344 C 53.71875 48.652344 53.179688 48.078125 53.179688 47.367188 L 53.179688 30.65625 C 52.652344 31.417969 52.125 32.179688 51.597656 32.9375 L 51.597656 46.335938 C 51.597656 47.074219 51.058594 47.675781 50.394531 47.675781 C 49.734375 47.675781 49.195312 47.074219 49.195312 46.335938 L 49.195312 28.914062 C 48.667969 29.710938 48.136719 30.503906 47.609375 31.296875 L 47.609375 45.183594 C 47.609375 45.953125 47.070312 46.578125 46.410156 46.578125 C 45.746094 46.578125 45.207031 45.953125 45.207031 45.183594 L 45.207031 27.019531 C 43.113281 30.296875 41.019531 33.574219 38.921875 36.855469 C 38.445312 37.597656 37.972656 38.34375 37.496094 39.089844 C 37.019531 38.34375 36.542969 37.597656 36.066406 36.855469 C 33.972656 33.578125 31.878906 30.296875 29.785156 27.023438 L 29.785156 45.183594 C 29.785156 45.953125 29.246094 46.578125 28.582031 46.578125 C 27.917969 46.578125 27.382812 45.953125 27.382812 45.183594 L 27.382812 31.300781 C 26.851562 30.503906 26.324219 29.710938 25.796875 28.917969 L 25.796875 46.335938 C 25.796875 47.074219 25.257812 47.675781 24.59375 47.675781 C 23.929688 47.675781 23.394531 47.074219 23.394531 46.335938 L 23.394531 32.941406 C 22.867188 32.179688 22.335938 31.417969 21.808594 30.660156 L 21.808594 47.367188 C 21.808594 48.078125 21.273438 48.652344 20.609375 48.652344 C 19.945312 48.652344 19.40625 48.078125 19.40625 47.367188 L 19.40625 26.984375 C 19.40625 26.558594 19.601562 26.183594 19.898438 25.949219 C 19.910156 25.9375 19.925781 25.929688 19.9375 25.917969 C 19.949219 25.910156 19.960938 25.902344 19.972656 25.894531 C 20.074219 25.828125 20.414062 25.644531 20.894531 25.808594 C 21.289062 25.945312 21.558594 26.246094 21.679688 26.402344 C 21.703125 26.429688 21.71875 26.453125 21.730469 26.46875 C 22.230469 27.179688 22.792969 27.980469 23.394531 28.839844 L 23.394531 25.082031 C 23.394531 24.644531 23.582031 24.257812 23.871094 24.015625 C 23.875 24.011719 23.878906 24.007812 23.882812 24.007812 C 23.894531 23.996094 23.910156 23.984375 23.921875 23.972656 C 23.921875 23.972656 23.925781 23.972656 23.925781 23.972656 C 23.929688 23.96875 23.9375 23.960938 23.945312 23.957031 C 23.949219 23.953125 23.953125 23.953125 23.957031 23.949219 C 23.960938 23.945312 23.964844 23.945312 23.96875 23.941406 C 23.972656 23.9375 23.976562 23.9375 23.980469 23.933594 C 23.996094 23.925781 24.160156 23.832031 24.351562 23.800781 C 24.363281 23.796875 24.375 23.796875 24.390625 23.792969 C 24.398438 23.792969 24.410156 23.792969 24.417969 23.792969 C 24.429688 23.789062 24.4375 23.789062 24.449219 23.789062 C 24.488281 23.789062 24.527344 23.789062 24.566406 23.792969 C 24.582031 23.792969 24.59375 23.792969 24.605469 23.796875 C 24.617188 23.796875 24.628906 23.796875 24.640625 23.800781 C 24.664062 23.800781 24.6875 23.804688 24.710938 23.8125 C 24.851562 23.839844 24.960938 23.898438 25.03125 23.933594 C 25.195312 24.019531 25.300781 24.117188 25.40625 24.210938 C 25.519531 24.3125 25.605469 24.40625 25.667969 24.480469 C 25.691406 24.511719 25.707031 24.535156 25.71875 24.550781 C 26.21875 25.292969 26.777344 26.125 27.382812 27.023438 L 27.382812 23.027344 C 27.382812 22.574219 27.570312 22.171875 27.859375 21.914062 C 27.867188 21.90625 27.878906 21.898438 27.886719 21.890625 C 27.902344 21.875 27.921875 21.863281 27.9375 21.851562 C 27.941406 21.847656 27.949219 21.84375 27.953125 21.839844 C 27.957031 21.839844 27.960938 21.835938 27.964844 21.832031 C 27.964844 21.832031 27.96875 21.832031 27.96875 21.828125 C 27.972656 21.828125 27.976562 21.824219 27.980469 21.824219 C 27.992188 21.816406 28.007812 21.804688 28.023438 21.796875 C 28.03125 21.792969 28.039062 21.789062 28.046875 21.785156 C 28.046875 21.785156 28.050781 21.78125 28.050781 21.78125 C 28.058594 21.777344 28.066406 21.773438 28.074219 21.773438 C 28.085938 21.765625 28.097656 21.757812 28.113281 21.753906 C 28.140625 21.742188 28.167969 21.730469 28.199219 21.722656 C 28.207031 21.71875 28.214844 21.714844 28.226562 21.714844 C 28.226562 21.714844 28.230469 21.710938 28.234375 21.710938 C 28.246094 21.707031 28.257812 21.707031 28.269531 21.703125 C 28.285156 21.699219 28.300781 21.695312 28.316406 21.691406 C 28.328125 21.691406 28.339844 21.6875 28.351562 21.6875 C 28.363281 21.683594 28.371094 21.683594 28.382812 21.683594 C 28.390625 21.683594 28.394531 21.683594 28.398438 21.679688 C 28.414062 21.679688 28.425781 21.679688 28.441406 21.679688 C 28.457031 21.679688 28.472656 21.675781 28.488281 21.675781 C 28.601562 21.675781 28.726562 21.695312 28.867188 21.75 C 29.265625 21.898438 29.535156 22.230469 29.652344 22.394531 C 29.671875 22.421875 29.6875 22.445312 29.699219 22.460938 C 31.71875 25.582031 34.722656 30.261719 37.496094 34.609375 C 40.265625 30.261719 43.269531 25.582031 45.292969 22.460938 C 45.300781 22.445312 45.316406 22.421875 45.339844 22.390625 C 45.453125 22.226562 45.726562 21.894531 46.125 21.746094 C 46.265625 21.695312 46.390625 21.675781 46.503906 21.675781 C 46.519531 21.675781 46.535156 21.675781 46.550781 21.675781 C 46.5625 21.675781 46.578125 21.679688 46.589844 21.679688 C 46.597656 21.679688 46.601562 21.679688 46.609375 21.679688 C 46.617188 21.683594 46.628906 21.683594 46.640625 21.683594 C 46.652344 21.6875 46.664062 21.6875 46.675781 21.691406 C 46.691406 21.695312 46.707031 21.699219 46.722656 21.699219 C 46.734375 21.703125 46.746094 21.707031 46.757812 21.710938 C 46.761719 21.710938 46.761719 21.710938 46.765625 21.710938 C 46.773438 21.714844 46.785156 21.71875 46.792969 21.71875 C 46.824219 21.730469 46.851562 21.742188 46.875 21.75 C 46.890625 21.757812 46.90625 21.765625 46.917969 21.769531 C 46.925781 21.773438 46.933594 21.777344 46.9375 21.78125 C 46.941406 21.78125 46.941406 21.78125 46.945312 21.78125 C 46.953125 21.785156 46.960938 21.789062 46.964844 21.792969 C 46.964844 21.792969 46.96875 21.796875 46.96875 21.796875 C 46.984375 21.804688 47 21.8125 47.011719 21.820312 C 47.015625 21.824219 47.019531 21.824219 47.019531 21.828125 C 47.023438 21.828125 47.023438 21.828125 47.027344 21.832031 L 47.039062 21.839844 C 47.042969 21.84375 47.046875 21.84375 47.050781 21.847656 C 47.070312 21.863281 47.085938 21.875 47.105469 21.890625 C 47.113281 21.898438 47.121094 21.90625 47.132812 21.914062 C 47.421875 22.167969 47.609375 22.570312 47.609375 23.027344 L 47.609375 27.023438 C 48.210938 26.125 48.773438 25.292969 49.273438 24.550781 C 49.285156 24.53125 49.300781 24.507812 49.324219 24.476562 C 49.382812 24.40625 49.46875 24.3125 49.582031 24.210938 C 49.691406 24.113281 49.796875 24.019531 49.960938 23.933594 C 50.03125 23.894531 50.136719 23.839844 50.28125 23.808594 C 50.304688 23.804688 50.328125 23.800781 50.351562 23.796875 C 50.363281 23.796875 50.375 23.792969 50.386719 23.792969 C 50.398438 23.792969 50.410156 23.789062 50.421875 23.789062 C 50.464844 23.785156 50.503906 23.785156 50.542969 23.789062 C 50.550781 23.789062 50.5625 23.789062 50.574219 23.789062 C 50.582031 23.789062 50.59375 23.792969 50.601562 23.792969 C 50.613281 23.792969 50.628906 23.796875 50.640625 23.796875 C 50.828125 23.828125 50.996094 23.925781 51.007812 23.929688 C 51.007812 23.929688 51.007812 23.929688 51.011719 23.933594 C 51.015625 23.933594 51.019531 23.9375 51.023438 23.941406 C 51.027344 23.941406 51.03125 23.945312 51.035156 23.949219 C 51.039062 23.949219 51.039062 23.953125 51.042969 23.953125 C 51.046875 23.957031 51.046875 23.957031 51.046875 23.957031 C 51.054688 23.960938 51.058594 23.964844 51.066406 23.96875 C 51.066406 23.96875 51.066406 23.972656 51.066406 23.972656 C 51.082031 23.980469 51.09375 23.992188 51.109375 24.003906 C 51.113281 24.007812 51.117188 24.007812 51.117188 24.011719 C 51.410156 24.257812 51.597656 24.644531 51.597656 25.082031 L 51.597656 28.839844 C 52.199219 27.980469 52.761719 27.179688 53.261719 26.46875 C 53.273438 26.453125 53.289062 26.429688 53.3125 26.398438 C 53.429688 26.246094 53.699219 25.945312 54.097656 25.808594 C 54.578125 25.640625 54.917969 25.828125 55.019531 25.894531 C 55.03125 25.902344 55.042969 25.910156 55.054688 25.917969 C 55.066406 25.925781 55.078125 25.9375 55.09375 25.945312 C 55.390625 26.179688 55.582031 26.558594 55.582031 26.980469 Z M 55.582031 26.980469 " fill-opacity="1" fill-rule="nonzero"/><path fill="#ffffff" d="M 37.429688 45.683594 L 22.171875 49.058594 C 21.8125 49.140625 21.871094 49.671875 22.238281 49.671875 L 52.75 49.671875 C 53.121094 49.671875 53.179688 49.140625 52.816406 49.058594 L 37.5625 45.683594 C 37.519531 45.671875 37.472656 45.671875 37.429688 45.683594 Z M 37.429688 45.683594 " fill-opacity="1" fill-rule="nonzero"/></svg>