<svg xmlns="http://www.w3.org/2000/svg" xmlns:xlink="http://www.w3.org/1999/xlink" width="100" zoomAndPan="magnify" viewBox="0 0 75 74.999997" height="100" preserveAspectRatio="xMidYMid meet" version="1.0"><defs><clipPath id="017aaba49e"><path d="M 3.75 0 L 71.25 0 C 72.246094 0 73.199219 0.394531 73.902344 1.097656 C 74.605469 1.800781 75 2.753906 75 3.75 L 75 71.25 C 75 72.246094 74.605469 73.199219 73.902344 73.902344 C 73.199219 74.605469 72.246094 75 71.25 75 L 3.75 75 C 2.753906 75 1.800781 74.605469 1.097656 73.902344 C 0.394531 73.199219 0 72.246094 0 71.25 L 0 3.75 C 0 2.753906 0.394531 1.800781 1.097656 1.097656 C 1.800781 0.394531 2.753906 0 3.75 0 Z M 3.75 0 " clip-rule="nonzero"/></clipPath><clipPath id="81e7fc79cf"><path d="M 13.902344 17 L 60.777344 17 L 60.777344 59 L 13.902344 59 Z M 13.902344 17 " clip-rule="nonzero"/></clipPath></defs><g clip-path="url(#017aaba49e)"><rect x="-7.5" width="90" fill="#000000" y="-7.5" height="89.999996" fill-opacity="1"/></g><g clip-path="url(#81e7fc79cf)"><path fill="#ffffff" d="M 60.113281 57.160156 L 48.828125 57.160156 C 48.542969 55.109375 47.292969 53.566406 47.171875 50.691406 C 47.125 49.523438 47.230469 48.273438 47.117188 46.132812 C 48.722656 44.546875 51.785156 41.140625 52.871094 39.316406 C 53.976562 39.25 55.09375 38.78125 55.976562 37.589844 C 58.5625 37.507812 60.582031 34.339844 58.683594 31.875 C 60.371094 30.585938 61.058594 26.554688 57.890625 25.421875 C 58.3125 23.160156 56.910156 20.878906 54.226562 21.308594 C 53.539062 18.253906 50.40625 16.21875 46.257812 18.503906 C 44.847656 16.890625 41.175781 16.933594 40.152344 19.898438 C 38.472656 19.023438 34.761719 19.785156 35.109375 24.179688 C 32.808594 23.898438 30.863281 25.484375 31.007812 28.816406 C 29.726562 29.953125 28.609375 32.027344 29.613281 34.589844 C 30.78125 37.558594 34.503906 37.09375 34.503906 37.09375 C 34.941406 37.597656 35.433594 37.9375 35.953125 38.140625 C 37.144531 39.859375 40.71875 43.246094 42.421875 44.667969 C 42.625 47.261719 42.527344 49.832031 42.390625 51.371094 C 42.269531 52.707031 41.613281 55.578125 41.394531 57.167969 L 30.125 57.167969 L 30.125 53.113281 L 32.554688 53.113281 L 32.554688 49.871094 L 30.125 49.871094 L 30.125 47.4375 L 30.933594 47.4375 L 30.933594 42.574219 L 17.957031 42.574219 L 17.957031 47.4375 L 18.765625 47.4375 L 18.765625 49.871094 L 16.335938 49.871094 L 16.335938 53.113281 L 18.765625 53.113281 L 18.765625 57.167969 L 14.710938 57.167969 C 14.265625 57.167969 13.902344 57.53125 13.902344 57.976562 C 13.902344 58.425781 14.265625 58.789062 14.710938 58.789062 L 60.113281 58.789062 C 60.558594 58.789062 60.921875 58.425781 60.921875 57.976562 C 60.921875 57.53125 60.558594 57.167969 60.113281 57.167969 Z M 51.074219 39.105469 C 50.109375 40.46875 48.332031 42.511719 46.953125 43.96875 C 46.679688 41.171875 46.484375 40.855469 46.492188 38.554688 C 47.207031 38.417969 47.976562 38.214844 48.800781 37.921875 C 49.128906 38.277344 49.996094 38.8125 51.074219 39.113281 Z M 38.132812 38.269531 C 38.886719 38.074219 39.550781 37.652344 39.957031 37.085938 C 40.582031 37.6875 41.394531 38.1875 42.4375 38.488281 C 42.339844 39.722656 42.277344 41.082031 42.292969 42.414062 C 40.945312 41.195312 39.238281 39.535156 38.125 38.277344 Z M 20.386719 47.429688 L 28.496094 47.429688 L 28.496094 49.863281 L 20.386719 49.863281 Z M 20.386719 57.160156 L 20.386719 53.105469 L 28.496094 53.105469 L 28.496094 57.160156 Z M 20.386719 57.160156 " fill-opacity="1" fill-rule="nonzero"/></g></svg>