<svg xmlns="http://www.w3.org/2000/svg" xmlns:xlink="http://www.w3.org/1999/xlink" width="100" zoomAndPan="magnify" viewBox="0 0 75 74.999997" height="100" preserveAspectRatio="xMidYMid meet" version="1.0"><defs><clipPath id="ec275693a8"><path d="M 3.75 0 L 71.25 0 C 72.246094 0 73.199219 0.394531 73.902344 1.097656 C 74.605469 1.800781 75 2.753906 75 3.75 L 75 71.25 C 75 72.246094 74.605469 73.199219 73.902344 73.902344 C 73.199219 74.605469 72.246094 75 71.25 75 L 3.75 75 C 2.753906 75 1.800781 74.605469 1.097656 73.902344 C 0.394531 73.199219 0 72.246094 0 71.25 L 0 3.75 C 0 2.753906 0.394531 1.800781 1.097656 1.097656 C 1.800781 0.394531 2.753906 0 3.75 0 Z M 3.75 0 " clip-rule="nonzero"/></clipPath><clipPath id="8fbb08b56d"><path d="M 15.039062 15.9375 L 60 15.9375 L 60 59.0625 L 15.039062 59.0625 Z M 15.039062 15.9375 " clip-rule="nonzero"/></clipPath></defs><g clip-path="url(#ec275693a8)"><rect x="-7.5" width="90" fill="#000000" y="-7.5" height="89.999996" fill-opacity="1"/></g><path fill="#ffffff" d="M 37.476562 30.789062 C 35 30.789062 32.984375 32.808594 32.984375 35.285156 C 32.984375 37.765625 35 39.78125 37.476562 39.78125 C 39.957031 39.78125 41.972656 37.765625 41.972656 35.285156 C 41.972656 32.808594 39.957031 30.789062 37.476562 30.789062 Z M 37.476562 39.070312 C 35.390625 39.070312 33.695312 37.371094 33.695312 35.285156 C 33.695312 33.199219 35.390625 31.5 37.476562 31.5 C 39.5625 31.5 41.257812 33.199219 41.257812 35.285156 C 41.257812 37.371094 39.5625 39.070312 37.476562 39.070312 Z M 37.476562 39.070312 " fill-opacity="1" fill-rule="nonzero"/><path fill="#ffffff" d="M 37.476562 32.03125 C 37.28125 32.03125 37.121094 32.191406 37.121094 32.386719 L 37.121094 35.128906 L 35.949219 36.214844 C 35.804688 36.347656 35.792969 36.570312 35.925781 36.714844 C 35.996094 36.792969 36.09375 36.832031 36.1875 36.832031 C 36.273438 36.832031 36.363281 36.800781 36.429688 36.738281 L 37.71875 35.546875 C 37.792969 35.480469 37.832031 35.386719 37.832031 35.285156 L 37.832031 32.386719 C 37.832031 32.191406 37.671875 32.03125 37.476562 32.03125 Z M 37.476562 32.03125 " fill-opacity="1" fill-rule="nonzero"/><path fill="#ffffff" d="M 22.265625 50.117188 L 19.0625 50.117188 C 18.867188 50.117188 18.707031 50.277344 18.707031 50.472656 L 18.707031 55.464844 C 18.707031 55.660156 18.867188 55.820312 19.0625 55.820312 L 22.265625 55.820312 C 22.464844 55.820312 22.621094 55.660156 22.621094 55.464844 L 22.621094 50.472656 C 22.621094 50.277344 22.460938 50.117188 22.265625 50.117188 Z M 21.910156 50.828125 L 21.910156 51.648438 L 19.417969 51.648438 L 19.417969 50.828125 Z M 21.910156 50.828125 " fill-opacity="1" fill-rule="nonzero"/><path fill="#ffffff" d="M 26.804688 50.117188 L 23.601562 50.117188 C 23.402344 50.117188 23.246094 50.277344 23.246094 50.472656 L 23.246094 55.464844 C 23.246094 55.660156 23.402344 55.820312 23.601562 55.820312 L 26.804688 55.820312 C 27 55.820312 27.160156 55.660156 27.160156 55.464844 L 27.160156 50.472656 C 27.160156 50.277344 27 50.117188 26.804688 50.117188 Z M 26.445312 50.828125 L 26.445312 51.648438 L 23.957031 51.648438 L 23.957031 50.828125 Z M 26.445312 50.828125 " fill-opacity="1" fill-rule="nonzero"/><path fill="#ffffff" d="M 25.46875 36.925781 L 22.265625 36.925781 C 22.070312 36.925781 21.910156 37.085938 21.910156 37.28125 L 21.910156 42.273438 C 21.910156 42.472656 22.070312 42.632812 22.265625 42.632812 L 25.46875 42.632812 C 25.664062 42.632812 25.824219 42.472656 25.824219 42.273438 L 25.824219 37.28125 C 25.824219 37.085938 25.664062 36.925781 25.46875 36.925781 Z M 25.113281 37.640625 L 25.113281 38.453125 L 22.621094 38.453125 L 22.621094 37.640625 Z M 25.113281 37.640625 " fill-opacity="1" fill-rule="nonzero"/><g clip-path="url(#8fbb08b56d)"><path fill="#ffffff" d="M 59.84375 34.722656 L 54.980469 26.65625 C 54.917969 26.550781 54.800781 26.484375 54.675781 26.484375 L 40.328125 26.484375 L 37.832031 23.503906 L 37.832031 21.371094 C 38.785156 21.480469 39.496094 22.007812 40.179688 22.527344 C 40.75 22.957031 41.292969 23.367188 41.925781 23.476562 C 42.160156 23.515625 42.394531 23.535156 42.617188 23.535156 C 43.761719 23.535156 44.699219 23.089844 44.746094 23.070312 C 44.871094 23.007812 44.949219 22.882812 44.949219 22.746094 L 44.949219 18.046875 C 44.949219 17.925781 44.886719 17.8125 44.78125 17.746094 C 44.679688 17.683594 44.550781 17.675781 44.441406 17.726562 C 44.429688 17.730469 43.25 18.285156 42.046875 18.078125 C 41.582031 17.996094 41.132812 17.65625 40.609375 17.261719 C 39.789062 16.640625 38.855469 15.9375 37.476562 15.9375 C 37.28125 15.9375 37.121094 16.097656 37.121094 16.292969 L 37.121094 23.503906 L 34.625 26.484375 L 20.277344 26.484375 C 20.152344 26.484375 20.035156 26.550781 19.972656 26.65625 L 15.113281 34.722656 C 15.046875 34.832031 15.042969 34.96875 15.105469 35.082031 C 15.167969 35.191406 15.289062 35.261719 15.414062 35.261719 C 15.414062 35.261719 17.21875 35.269531 19.457031 35.273438 L 19.457031 44.003906 L 17.816406 44.003906 C 17.617188 44.003906 17.460938 44.164062 17.460938 44.359375 L 17.460938 57.777344 C 17.460938 57.976562 17.617188 58.132812 17.816406 58.132812 L 27.679688 58.132812 L 27.679688 58.699219 C 27.679688 58.894531 27.835938 59.054688 28.035156 59.054688 L 46.921875 59.054688 C 47.117188 59.054688 47.277344 58.894531 47.277344 58.699219 L 47.277344 58.132812 L 57.140625 58.132812 C 57.335938 58.132812 57.496094 57.976562 57.496094 57.777344 L 57.496094 44.359375 C 57.496094 44.164062 57.335938 44.003906 57.140625 44.003906 L 55.496094 44.003906 L 55.496094 35.273438 L 59.539062 35.261719 C 59.667969 35.261719 59.785156 35.191406 59.847656 35.082031 C 59.910156 34.96875 59.910156 34.832031 59.84375 34.722656 Z M 41.925781 18.777344 C 42.835938 18.9375 43.710938 18.738281 44.238281 18.566406 L 44.238281 22.511719 C 43.851562 22.65625 42.957031 22.933594 42.046875 22.773438 C 41.582031 22.695312 41.132812 22.351562 40.609375 21.960938 C 39.863281 21.394531 39.019531 20.765625 37.832031 20.65625 L 37.832031 16.671875 C 38.785156 16.78125 39.496094 17.3125 40.179688 17.832031 C 40.75 18.261719 41.289062 18.667969 41.925781 18.777344 Z M 20.171875 35.273438 C 21.824219 35.277344 23.632812 35.28125 25.097656 35.28125 C 25.160156 35.28125 25.226562 35.28125 25.289062 35.28125 C 26.507812 35.28125 27.234375 35.28125 27.679688 35.261719 L 27.679688 44.003906 L 20.171875 44.003906 Z M 18.171875 48.40625 L 27.679688 48.40625 L 27.679688 57.421875 L 18.171875 57.421875 Z M 41.746094 47.449219 L 41.746094 58.34375 L 37.835938 58.34375 L 37.835938 47.449219 Z M 33.207031 47.449219 L 37.125 47.449219 L 37.125 58.34375 L 33.207031 58.34375 Z M 46.566406 58.34375 L 42.457031 58.34375 L 42.457031 43.398438 C 42.457031 43.203125 42.300781 43.042969 42.101562 43.042969 L 32.851562 43.042969 C 32.65625 43.042969 32.496094 43.203125 32.496094 43.398438 L 32.496094 58.34375 L 28.390625 58.34375 L 28.390625 35.035156 L 37.476562 24.1875 L 46.566406 35.035156 Z M 47.277344 57.421875 L 47.277344 48.40625 L 56.785156 48.40625 L 56.785156 57.421875 Z M 47.277344 44.003906 L 47.277344 35.261719 C 47.71875 35.28125 48.445312 35.28125 49.667969 35.28125 C 49.824219 35.28125 49.984375 35.28125 50.148438 35.28125 C 51.558594 35.28125 53.238281 35.28125 54.785156 35.277344 L 54.785156 44.003906 Z M 47.277344 44.003906 " fill-opacity="1" fill-rule="nonzero"/></g><path fill="#ffffff" d="M 55.890625 50.117188 L 52.6875 50.117188 C 52.492188 50.117188 52.332031 50.277344 52.332031 50.472656 L 52.332031 55.464844 C 52.332031 55.660156 52.492188 55.820312 52.6875 55.820312 L 55.890625 55.820312 C 56.085938 55.820312 56.246094 55.660156 56.246094 55.464844 L 56.246094 50.472656 C 56.246094 50.277344 56.085938 50.117188 55.890625 50.117188 Z M 55.535156 50.828125 L 55.535156 51.648438 L 53.042969 51.648438 L 53.042969 50.828125 Z M 55.535156 50.828125 " fill-opacity="1" fill-rule="nonzero"/><path fill="#ffffff" d="M 51.355469 50.117188 L 48.152344 50.117188 C 47.953125 50.117188 47.796875 50.277344 47.796875 50.472656 L 47.796875 55.464844 C 47.796875 55.660156 47.953125 55.820312 48.152344 55.820312 L 51.355469 55.820312 C 51.550781 55.820312 51.710938 55.660156 51.710938 55.464844 L 51.710938 50.472656 C 51.710938 50.277344 51.550781 50.117188 51.355469 50.117188 Z M 51 50.828125 L 51 51.648438 L 48.507812 51.648438 L 48.507812 50.828125 Z M 51 50.828125 " fill-opacity="1" fill-rule="nonzero"/><path fill="#ffffff" d="M 52.6875 36.925781 L 49.484375 36.925781 C 49.289062 36.925781 49.128906 37.085938 49.128906 37.28125 L 49.128906 42.273438 C 49.128906 42.472656 49.289062 42.632812 49.484375 42.632812 L 52.6875 42.632812 C 52.886719 42.632812 53.042969 42.472656 53.042969 42.273438 L 53.042969 37.28125 C 53.042969 37.085938 52.886719 36.925781 52.6875 36.925781 Z M 52.332031 37.640625 L 52.332031 38.453125 L 49.84375 38.453125 L 49.84375 37.640625 Z M 52.332031 37.640625 " fill-opacity="1" fill-rule="nonzero"/></svg>